#Comment line ignore any data following # character 
#Hierarchical Translation and Rotation (.htr) file 
[Header]	
#Header keywords are followed by a single value 
FileType HTR		#Single word string
DataType HTRS		#Translation followed by rotation and scale data
FileVersion 1		#integer
NumSegments 84		#integer
NumFrames 2		#integer
DataFrameRate 30		#integer, data frame rate in this file
EulerRotationOrder ZYX
CalibrationUnits mm
RotationUnits Degrees
GlobalAxisofGravity Y
BoneLengthAxis Y
ScaleFactor 1.00
[SegmentNames&Hierarchy]
#CHILD	PARENT
MASTER GLOBAL
root MASTER
chest root
L_mid_tent01 root
R_mid_tent01 root
spine01 root
Bip01_Neck chest
L_humerus chest
R_humerus chest
weapon_bone chest
Bip01_Head Bip01_Neck
eye_left_bone Bip01_Head
eye_right_bone Bip01_Head
L_forearm L_humerus
L_front_hand L_forearm
L_weapon_bone L_forearm
L_front_hand01_01 L_front_hand
L_front_hand02_01 L_front_hand
L_front_hand03_01 L_front_hand
L_front_hand01_02 L_front_hand01_01
L_front_hand02_02 L_front_hand02_01
L_front_hand03_02 L_front_hand03_01
R_forearm R_humerus
R_front_hand R_forearm
R_weapon_bone R_forearm
R_front_hand01_01 R_front_hand
R_front_hand02_01 R_front_hand
R_front_hand03_01 R_front_hand
R_front_hand01_02 R_front_hand01_01
R_front_hand02_02 R_front_hand02_01
R_front_hand03_02 R_front_hand03_01
null_rope01_connect L_mid_tent01
Rope1_Seg01 null_rope01_connect
Rope1_Seg02 Rope1_Seg01
Rope1_Seg03 Rope1_Seg02
Rope1_Seg04 Rope1_Seg03
Rope1_Seg05 Rope1_Seg04
Rope1_Seg06 Rope1_Seg05
Rope1_Seg07 Rope1_Seg06
Rope1_Seg09 Rope1_Seg07
L_mid_hand01 Rope1_Seg09
L_mid_hand02 Rope1_Seg09
L_mid_hand03 Rope1_Seg09
null_rope02_connect R_mid_tent01
Rope2_Seg01 null_rope02_connect
Rope2_Seg02 Rope2_Seg01
Rope2_Seg03 Rope2_Seg02
Rope2_Seg04 Rope2_Seg03
Rope2_Seg05 Rope2_Seg04
Rope2_Seg06 Rope2_Seg05
Rope2_Seg07 Rope2_Seg06
Rope2_Seg09 Rope2_Seg07
R_mid_hand01 Rope2_Seg09
R_mid_hand02 Rope2_Seg09
R_mid_hand03 Rope2_Seg09
spine02 spine01
spine03 spine02
pelvis spine03
null_rope03_connect pelvis
null_rope04_connect pelvis
Rope3_Seg01 null_rope03_connect
Rope3_Seg02 Rope3_Seg01
Rope3_Seg03 Rope3_Seg02
Rope3_Seg04 Rope3_Seg03
Rope3_Seg05 Rope3_Seg04
Rope3_Seg06 Rope3_Seg05
Rope3_Seg07 Rope3_Seg06
Rope3_Seg08 Rope3_Seg07
Rope3_Seg09 Rope3_Seg08
R_rear_hand01 Rope3_Seg09
R_rear_hand02 Rope3_Seg09
R_rear_hand03 Rope3_Seg09
Rope4_Seg01 null_rope04_connect
Rope4_Seg02 Rope4_Seg01
Rope4_Seg03 Rope4_Seg02
Rope4_Seg04 Rope4_Seg03
Rope4_Seg05 Rope4_Seg04
Rope4_Seg06 Rope4_Seg05
Rope4_Seg07 Rope4_Seg06
Rope4_Seg08 Rope4_Seg07
Rope4_Seg09 Rope4_Seg08
L_rear_hand01 Rope4_Seg09
L_rear_hand02 Rope4_Seg09
L_rear_hand03 Rope4_Seg09
[BasePosition]
#SegmentName Tx, Ty, Tz, Rx, Ry, Rz, BoneLength
MASTER 0.000000 0.000000 0.000000 -90.000000 0.000000 0.000000 10.000000 
root 0.000000 0.000000 0.000000 0.000000 0.000000 0.000000 10.000000 
chest 0.000000 0.000000 0.000000 0.000000 0.000000 0.000000 10.000000 
L_mid_tent01 0.000000 0.000000 0.000000 0.000000 0.000000 0.000000 10.000000 
R_mid_tent01 0.000000 0.000000 0.000000 0.000000 0.000000 0.000000 10.000000 
spine01 0.000000 0.000000 0.000000 0.000000 0.000000 0.000000 10.000000 
Bip01_Neck 0.000000 0.000000 0.000000 0.000000 0.000000 0.000000 10.000000 
L_humerus 0.000000 0.000000 0.000000 0.000000 0.000000 0.000000 10.000000 
R_humerus 0.000000 0.000000 0.000000 0.000000 0.000000 0.000000 10.000000 
weapon_bone 0.000000 0.000000 0.000000 0.000000 0.000000 0.000000 10.000000 
Bip01_Head 0.000000 0.000000 0.000000 0.000000 0.000000 0.000000 10.000000 
eye_left_bone 0.000000 0.000000 0.000000 0.000000 0.000000 0.000000 10.000000 
eye_right_bone 0.000000 0.000000 0.000000 0.000000 0.000000 0.000000 10.000000 
L_forearm 0.000000 0.000000 0.000000 0.000000 0.000000 0.000000 10.000000 
L_front_hand 0.000000 0.000000 0.000000 0.000000 0.000000 0.000000 10.000000 
L_weapon_bone 0.000000 0.000000 0.000000 0.000000 0.000000 0.000000 10.000000 
L_front_hand01_01 0.000000 0.000000 0.000000 0.000000 0.000000 0.000000 10.000000 
L_front_hand02_01 0.000000 0.000000 0.000000 0.000000 0.000000 0.000000 10.000000 
L_front_hand03_01 0.000000 0.000000 0.000000 0.000000 0.000000 0.000000 10.000000 
L_front_hand01_02 0.000000 0.000000 0.000000 0.000000 0.000000 0.000000 10.000000 
L_front_hand02_02 0.000000 0.000000 0.000000 0.000000 0.000000 0.000000 10.000000 
L_front_hand03_02 0.000000 0.000000 0.000000 0.000000 0.000000 0.000000 10.000000 
R_forearm 0.000000 0.000000 0.000000 0.000000 0.000000 0.000000 10.000000 
R_front_hand 0.000000 0.000000 0.000000 0.000000 0.000000 0.000000 10.000000 
R_weapon_bone 0.000000 0.000000 0.000000 0.000000 0.000000 0.000000 10.000000 
R_front_hand01_01 0.000000 0.000000 0.000000 0.000000 0.000000 0.000000 10.000000 
R_front_hand02_01 0.000000 0.000000 0.000000 0.000000 0.000000 0.000000 10.000000 
R_front_hand03_01 0.000000 0.000000 0.000000 0.000000 0.000000 0.000000 10.000000 
R_front_hand01_02 0.000000 0.000000 0.000000 0.000000 0.000000 0.000000 10.000000 
R_front_hand02_02 0.000000 0.000000 0.000000 0.000000 0.000000 0.000000 10.000000 
R_front_hand03_02 0.000000 0.000000 0.000000 0.000000 0.000000 0.000000 10.000000 
null_rope01_connect 0.000000 0.000000 0.000000 0.000000 0.000000 0.000000 10.000000 
Rope1_Seg01 0.000000 0.000000 0.000000 0.000000 0.000000 0.000000 10.000000 
Rope1_Seg02 0.000000 0.000000 0.000000 0.000000 0.000000 0.000000 10.000000 
Rope1_Seg03 0.000000 0.000000 0.000000 0.000000 0.000000 0.000000 10.000000 
Rope1_Seg04 0.000000 0.000000 0.000000 0.000000 0.000000 0.000000 10.000000 
Rope1_Seg05 0.000000 0.000000 0.000000 0.000000 0.000000 0.000000 10.000000 
Rope1_Seg06 0.000000 0.000000 0.000000 0.000000 0.000000 0.000000 10.000000 
Rope1_Seg07 0.000000 0.000000 0.000000 0.000000 0.000000 0.000000 10.000000 
Rope1_Seg09 0.000000 0.000000 0.000000 0.000000 0.000000 0.000000 10.000000 
L_mid_hand01 0.000000 0.000000 0.000000 0.000000 0.000000 0.000000 10.000000 
L_mid_hand02 0.000000 0.000000 0.000000 0.000000 0.000000 0.000000 10.000000 
L_mid_hand03 0.000000 0.000000 0.000000 0.000000 0.000000 0.000000 10.000000 
null_rope02_connect 0.000000 0.000000 0.000000 0.000000 0.000000 0.000000 10.000000 
Rope2_Seg01 0.000000 0.000000 0.000000 0.000000 0.000000 0.000000 10.000000 
Rope2_Seg02 0.000000 0.000000 0.000000 0.000000 0.000000 0.000000 10.000000 
Rope2_Seg03 0.000000 0.000000 0.000000 0.000000 0.000000 0.000000 10.000000 
Rope2_Seg04 0.000000 0.000000 0.000000 0.000000 0.000000 0.000000 10.000000 
Rope2_Seg05 0.000000 0.000000 0.000000 0.000000 0.000000 0.000000 10.000000 
Rope2_Seg06 0.000000 0.000000 0.000000 0.000000 0.000000 0.000000 10.000000 
Rope2_Seg07 0.000000 0.000000 0.000000 0.000000 0.000000 0.000000 10.000000 
Rope2_Seg09 0.000000 0.000000 0.000000 0.000000 0.000000 0.000000 10.000000 
R_mid_hand01 0.000000 0.000000 0.000000 0.000000 0.000000 0.000000 10.000000 
R_mid_hand02 0.000000 0.000000 0.000000 0.000000 0.000000 0.000000 10.000000 
R_mid_hand03 0.000000 0.000000 0.000000 0.000000 0.000000 0.000000 10.000000 
spine02 0.000000 0.000000 0.000000 0.000000 0.000000 0.000000 10.000000 
spine03 0.000000 0.000000 0.000000 0.000000 0.000000 0.000000 10.000000 
pelvis 0.000000 0.000000 0.000000 0.000000 0.000000 0.000000 10.000000 
null_rope03_connect 0.000000 0.000000 0.000000 0.000000 0.000000 0.000000 10.000000 
null_rope04_connect 0.000000 0.000000 0.000000 0.000000 0.000000 0.000000 10.000000 
Rope3_Seg01 0.000000 0.000000 0.000000 0.000000 0.000000 0.000000 10.000000 
Rope3_Seg02 0.000000 0.000000 0.000000 0.000000 0.000000 0.000000 10.000000 
Rope3_Seg03 0.000000 0.000000 0.000000 0.000000 0.000000 0.000000 10.000000 
Rope3_Seg04 0.000000 0.000000 0.000000 0.000000 0.000000 0.000000 10.000000 
Rope3_Seg05 0.000000 0.000000 0.000000 0.000000 0.000000 0.000000 10.000000 
Rope3_Seg06 0.000000 0.000000 0.000000 0.000000 0.000000 0.000000 10.000000 
Rope3_Seg07 0.000000 0.000000 0.000000 0.000000 0.000000 0.000000 10.000000 
Rope3_Seg08 0.000000 0.000000 0.000000 0.000000 0.000000 0.000000 10.000000 
Rope3_Seg09 0.000000 0.000000 0.000000 0.000000 0.000000 0.000000 10.000000 
R_rear_hand01 0.000000 0.000000 0.000000 0.000000 0.000000 0.000000 10.000000 
R_rear_hand02 0.000000 0.000000 0.000000 0.000000 0.000000 0.000000 10.000000 
R_rear_hand03 0.000000 0.000000 0.000000 0.000000 0.000000 0.000000 10.000000 
Rope4_Seg01 0.000000 0.000000 0.000000 0.000000 0.000000 0.000000 10.000000 
Rope4_Seg02 0.000000 0.000000 0.000000 0.000000 0.000000 0.000000 10.000000 
Rope4_Seg03 0.000000 0.000000 0.000000 0.000000 0.000000 0.000000 10.000000 
Rope4_Seg04 0.000000 0.000000 0.000000 0.000000 0.000000 0.000000 10.000000 
Rope4_Seg05 0.000000 0.000000 0.000000 0.000000 0.000000 0.000000 10.000000 
Rope4_Seg06 0.000000 0.000000 0.000000 0.000000 0.000000 0.000000 10.000000 
Rope4_Seg07 0.000000 0.000000 0.000000 0.000000 0.000000 0.000000 10.000000 
Rope4_Seg08 0.000000 0.000000 0.000000 0.000000 0.000000 0.000000 10.000000 
Rope4_Seg09 0.000000 0.000000 0.000000 0.000000 0.000000 0.000000 10.000000 
L_rear_hand01 0.000000 0.000000 0.000000 0.000000 0.000000 0.000000 10.000000 
L_rear_hand02 0.000000 0.000000 0.000000 0.000000 0.000000 0.000000 10.000000 
L_rear_hand03 0.000000 0.000000 0.000000 0.000000 0.000000 0.000000 10.000000 
#Beginning of Data. Separated by tabs
#Fr	Tx	Ty	Tz	Rx	Ry	Rz	SF
[MASTER]
26 -0.001002 5412.018555 -88.632698 0.001660 0.001660 0.001660 5412.744629
27 -0.000988 5554.011230 -89.539642 0.001660 0.001660 0.001660 5554.732910
[root]
26 -16.502228 -57.475487 1495.794678 -91.633812 -26.485380 -89.957924 1496.989502
27 -16.502180 -44.108078 1486.118774 -91.655624 -23.505754 -89.787048 1486.864746
[chest]
26 -84.512650 -34.090519 0.000000 -2.019326 0.593593 176.712830 91.129311
27 -84.512650 -34.090519 0.000000 -2.058829 0.472213 174.962555 91.129311
[L_mid_tent01]
26 27.299166 22.179253 -249.918732 -20.661390 12.026041 12.983019 252.381729
27 27.299168 22.179258 -249.918732 -20.661392 12.026043 12.983022 252.381729
[R_mid_tent01]
26 23.228794 24.509907 226.238495 -165.192200 -17.956036 24.056787 228.744751
27 23.228794 24.509907 226.238495 -165.192200 -17.956036 24.056787 228.744751
[spine01]
26 -0.361383 -0.195265 0.000000 0.001976 0.001267 24.683123 0.410763
27 -0.361383 -0.195265 0.000000 0.001970 0.001277 24.106293 0.410763
[Bip01_Neck]
26 165.484543 71.581718 0.000119 176.643677 -1.657967 43.431911 180.302734
27 165.484543 71.581718 0.000119 176.643677 -1.657967 43.431911 180.302734
[L_humerus]
26 -13.983130 -135.272980 -120.471481 -5.772787 68.073692 84.246613 181.680161
27 -13.983130 -135.272980 -120.471481 -5.680452 68.339851 84.353188 181.680161
[R_humerus]
26 -13.983309 -135.273102 125.287651 27.456762 -69.060417 68.204803 184.909012
27 -13.983309 -135.273102 125.287651 27.600542 -69.334068 68.053238 184.909012
[weapon_bone]
26 235.964890 -300.705902 0.000000 0.000000 -89.951546 -128.212341 382.234833
27 235.964890 -300.705902 0.000000 0.000000 -89.951546 -128.212341 382.234833
[Bip01_Head]
26 213.326660 186.042419 7.559204 5.200446 6.151311 -43.834991 283.155762
27 213.326614 186.042435 7.559204 5.200446 6.151311 -43.834991 283.155731
[eye_left_bone]
26 -24.626970 125.451866 -64.772606 0.000000 -90.000000 -99.840431 143.318359
27 -24.626970 125.451866 -64.772606 0.000000 -90.000000 -99.840431 143.318359
[eye_right_bone]
26 -24.626970 125.451866 64.327362 0.000000 -89.965736 80.156380 143.117676
27 -24.626970 125.451866 64.327362 0.000000 -89.965736 80.156380 143.117676
[L_forearm]
26 322.776093 0.000000 -0.000119 0.000401 -0.002313 -109.692406 322.776093
27 322.776093 0.000000 -0.000119 0.000400 -0.002313 -109.607681 322.776093
[L_front_hand]
26 241.149185 -0.042021 -3.300071 -178.667953 -1.835447 -27.422350 241.171753
27 241.149185 -0.042021 -3.300071 -178.667953 -1.835447 -27.422342 241.171753
[L_weapon_bone]
26 156.183838 0.000000 0.000000 0.000014 0.000007 0.000001 156.183838
27 156.183838 0.000000 0.000000 0.000014 0.000007 0.000001 156.183838
[L_front_hand01_01]
26 86.095154 20.947098 -0.655860 -0.342291 -0.495149 72.451675 88.609184
27 86.095154 20.947098 -0.655860 -0.349230 -0.490138 73.139862 88.609184
[L_front_hand02_01]
26 86.935165 -11.437475 24.513514 150.048462 -58.519783 -56.305634 91.046425
27 86.935165 -11.437475 24.513514 151.025070 -58.854908 -57.448093 91.046425
[L_front_hand03_01]
26 86.637497 -14.123976 -20.424902 -149.869949 56.734909 -57.903400 90.126129
27 86.637497 -14.123976 -20.424902 -150.781433 57.074547 -58.996464 90.126129
[L_front_hand01_02]
26 71.020905 -0.000179 0.000030 0.000322 -0.002325 -105.783043 71.020905
27 71.020905 -0.000179 0.000030 0.000323 -0.002325 -105.838058 71.020905
[L_front_hand02_02]
26 71.020927 -0.000119 0.000060 0.000322 -0.002325 -105.783043 71.020927
27 71.020927 -0.000119 0.000060 0.000323 -0.002325 -105.838058 71.020927
[L_front_hand03_02]
26 71.020905 -0.000060 0.000060 0.000322 -0.002325 -105.783043 71.020905
27 71.020905 -0.000060 0.000060 0.000323 -0.002325 -105.838058 71.020905
[R_forearm]
26 322.776428 -0.000060 0.000030 0.201946 0.065642 -108.337555 322.776428
27 322.776428 -0.000060 0.000030 0.201993 0.065497 -108.255157 322.776428
[R_front_hand]
26 238.847015 -0.006795 2.210259 -2.635298 -10.645461 -26.312506 238.857239
27 238.847015 -0.006795 2.210259 -2.635298 -10.645461 -26.312506 238.857239
[R_weapon_bone]
26 155.664093 0.002503 -0.000030 0.003487 0.001180 -90.988930 155.664078
27 155.664093 0.002503 -0.000030 0.003487 0.001180 -90.988930 155.664078
[R_front_hand01_01]
26 87.624611 14.231146 22.918642 -153.375839 -59.587151 60.286892 91.683487
27 87.624611 14.231146 22.918642 -154.293076 -59.856686 61.349701 91.683487
[R_front_hand02_01]
26 89.356956 14.367283 -19.491137 153.420532 57.944527 62.356834 92.579636
27 89.356956 14.367283 -19.491137 154.283218 58.213089 63.373535 92.579636
[R_front_hand03_01]
26 87.286232 -22.307278 -0.143439 0.155221 -0.427320 -74.955528 90.091743
27 87.286232 -22.307278 -0.143439 0.161369 -0.423469 -75.555016 90.091743
[R_front_hand01_02]
26 71.020905 0.000060 0.000119 0.002323 -0.000334 106.381714 71.020905
27 71.020905 0.000060 0.000119 0.002323 -0.000334 106.381714 71.020905
[R_front_hand02_02]
26 71.020844 -0.000030 -0.000119 0.002323 -0.000334 106.381714 71.020836
27 71.020844 -0.000030 -0.000119 0.002323 -0.000334 106.381714 71.020836
[R_front_hand03_02]
26 71.020905 0.000000 0.000030 0.002323 -0.000334 106.381714 71.020905
27 71.020905 0.000000 0.000030 0.002323 -0.000334 106.381714 71.020905
[null_rope01_connect]
26 328.732483 0.000000 -0.000238 -138.604385 -64.682236 -119.995499 328.732483
27 328.732483 0.000000 -0.000238 -141.874237 -64.766518 -119.673218 328.732483
[Rope1_Seg01]
26 -0.000032 0.000006 0.000127 49.892883 -5.550716 -120.968346 0.000131
27 -0.000033 0.000005 0.000132 51.358627 -3.864421 -121.690994 0.000136
[Rope1_Seg02]
26 139.999863 -0.000179 0.000000 -7.723853 2.839502 3.901541 139.999863
27 139.999863 -0.000179 0.000000 -9.260418 3.494542 3.949001 139.999863
[Rope1_Seg03]
26 139.999924 0.000060 -0.000060 -6.511901 2.004556 4.184124 139.999924
27 139.999924 0.000060 -0.000060 -8.256024 2.758302 4.431476 139.999924
[Rope1_Seg04]
26 139.999924 -0.000060 -0.000119 -6.651701 1.861089 5.196911 139.999924
27 139.999924 -0.000060 -0.000119 -8.284329 2.466159 5.643367 139.999924
[Rope1_Seg05]
26 139.999832 0.000119 -0.000060 -6.976655 2.756696 5.317345 139.999832
27 139.999832 0.000119 -0.000060 -6.289844 1.590872 5.365284 139.999832
[Rope1_Seg06]
26 139.999954 0.000119 -0.000060 -3.079967 1.111868 2.638824 139.999954
27 139.999954 0.000119 -0.000060 -2.535831 0.468559 2.539169 139.999954
[Rope1_Seg07]
26 139.999985 0.000060 0.000000 -1.594678 0.458788 1.568215 139.999985
27 139.999985 0.000060 0.000000 -1.405282 0.203592 1.542384 139.999985
[Rope1_Seg09]
26 121.602913 0.000119 -0.000089 -89.793175 -1.359789 0.847147 121.602913
27 121.602913 0.000119 -0.000089 -89.793175 -1.359789 0.847147 121.602913
[L_mid_hand01]
26 103.859421 1.038730 8.195221 130.544373 -67.584534 -38.866943 104.187431
27 103.859421 1.038730 8.195221 130.544373 -67.584534 -38.866943 104.187431
[L_mid_hand02]
26 105.572853 -4.139662 -10.864139 -168.923172 43.409309 -73.498886 106.211075
27 105.572853 -4.139662 -10.864139 -168.923172 43.409309 -73.498886 106.211075
[L_mid_hand03]
26 104.641464 17.579376 -3.913581 -6.012627 17.808174 74.893669 106.179977
27 104.641464 17.579376 -3.913581 -6.012626 17.808172 74.893661 106.179977
[null_rope02_connect]
26 328.732849 0.000179 -0.000119 -126.366516 68.316017 -36.295624 328.732849
27 328.732849 0.000179 -0.000119 -129.062866 68.201591 -35.987522 328.732849
[Rope2_Seg01]
26 0.000070 0.000025 0.000000 36.893536 0.538078 -46.845829 0.000074
27 0.000071 0.000020 0.000000 34.757324 3.184416 -45.604710 0.000074
[Rope2_Seg02]
26 139.999741 -0.000060 -0.000119 17.085854 -11.831662 -4.310787 139.999756
27 139.999741 -0.000060 -0.000119 20.673000 -12.136202 -5.030518 139.999756
[Rope2_Seg03]
26 140.000107 0.000030 0.000000 2.737381 -9.144373 1.782862 140.000107
27 140.000107 0.000030 0.000000 2.691978 -9.454329 2.102300 140.000107
[Rope2_Seg04]
26 139.999802 0.000000 -0.000060 5.055688 -8.600555 -1.361716 139.999802
27 139.999802 0.000000 -0.000060 5.704398 -9.095501 -1.490638 139.999802
[Rope2_Seg05]
26 139.999985 -0.000060 0.000119 7.749281 -7.812522 -5.940991 139.999985
27 139.999985 -0.000060 0.000119 8.254739 -8.327724 -5.921846 139.999985
[Rope2_Seg06]
26 139.999893 -0.000030 -0.000119 3.235931 -4.642940 -2.585797 139.999893
27 139.999893 -0.000030 -0.000119 3.225392 -4.817792 -2.357649 139.999893
[Rope2_Seg07]
26 139.999893 0.000060 -0.000060 1.402531 -2.775438 -1.051517 139.999893
27 139.999893 0.000060 -0.000060 1.390607 -2.861006 -0.938486 139.999893
[Rope2_Seg09]
26 121.338966 0.000089 -0.000060 33.793236 -1.359788 -0.847141 121.338966
27 121.338966 0.000089 -0.000060 33.793236 -1.359788 -0.847141 121.338966
[R_mid_hand01]
26 104.680779 11.144459 -10.335981 -16.212063 45.237247 70.462852 105.778534
27 104.680779 11.144459 -10.335981 -16.212063 45.237247 70.462852 105.778534
[R_mid_hand02]
26 104.070427 2.443552 8.231699 49.067368 -67.749771 39.286453 104.424065
27 104.070427 2.443552 8.231699 49.067368 -67.749771 39.286453 104.424065
[R_mid_hand03]
26 106.028137 -11.221827 -5.996406 -177.101105 15.551026 -76.585571 106.788818
27 106.028137 -11.221827 -5.996406 -177.101105 15.551026 -76.585571 106.788818
[spine02]
26 129.756927 0.001550 0.000119 0.383638 -4.042407 -13.304421 129.756927
27 129.756927 0.001550 0.000119 0.376952 -4.043092 -13.184628 129.756927
[spine03]
26 78.613922 0.081507 -4.898992 1.912897 3.824258 16.726881 78.766457
27 78.613914 0.081502 -4.898991 1.906750 3.827921 16.633366 78.766457
[pelvis]
26 169.435242 0.051022 0.000000 -0.061241 -0.179963 14.581408 169.435257
27 169.435242 0.051022 0.000000 -0.060982 -0.180051 14.416885 169.435257
[null_rope03_connect]
26 -1.257226 -2.466202 137.391083 0.000000 -89.487953 73.822273 137.418976
27 -1.257226 -2.466202 137.391083 0.000000 -89.565689 71.534538 137.418976
[null_rope04_connect]
26 -1.259640 -2.480268 -137.844437 0.000000 -89.487953 73.822273 137.872513
27 -1.259640 -2.480268 -137.844437 0.000000 -89.565689 71.534538 137.872513
[Rope3_Seg01]
26 0.000010 0.000038 -0.000114 -130.885834 2.938061 -86.703308 0.000121
27 0.000010 0.000038 -0.000114 -131.506317 7.049457 -85.666008 0.000121
[Rope3_Seg02]
26 139.999924 -0.000119 0.000060 -0.033845 -2.536638 -1.971502 139.999924
27 139.999924 -0.000119 0.000060 -0.008680 -2.259157 -1.984353 139.999924
[Rope3_Seg03]
26 139.999924 -0.000119 0.000119 0.057699 -3.074434 -2.825180 139.999924
27 139.999924 -0.000119 0.000119 0.070315 -2.747513 -2.862239 139.999924
[Rope3_Seg04]
26 139.999924 0.000119 0.000000 0.112454 -3.711504 -3.723744 139.999924
27 139.999924 0.000119 0.000000 0.101396 -3.385133 -3.876238 139.999924
[Rope3_Seg05]
26 139.999924 -0.000238 0.000060 0.232397 2.299049 4.588181 139.999924
27 139.999924 -0.000238 0.000060 0.224647 2.110923 4.844950 139.999924
[Rope3_Seg06]
26 139.999893 -0.000119 -0.000060 0.551208 3.313041 5.467196 139.999893
27 139.999893 -0.000119 -0.000060 0.500202 3.076607 5.830925 139.999893
[Rope3_Seg07]
26 139.999771 0.000060 -0.000119 0.489513 1.322105 2.406327 139.999771
27 139.999771 0.000060 -0.000119 0.455262 1.242965 2.593585 139.999771
[Rope3_Seg08]
26 139.999985 -0.000060 0.000000 0.512646 0.855462 1.528859 139.999985
27 139.999985 -0.000060 0.000000 0.483218 0.805862 1.657033 139.999985
[Rope3_Seg09]
26 90.185997 -0.000179 -0.000060 89.793228 -1.359877 -0.847183 90.185997
27 90.185997 -0.000179 -0.000060 89.793228 -1.359877 -0.847183 90.185997
[R_rear_hand01]
26 103.366196 -6.073594 -10.757982 -177.714203 24.565960 -73.910950 104.101845
27 103.366196 -6.073594 -10.757982 -177.714203 24.565960 -73.910950 104.101845
[R_rear_hand02]
26 100.509819 12.039542 -7.992327 -12.874829 36.868488 72.167213 101.543350
27 100.509819 12.039542 -7.992327 -12.874829 36.868488 72.167213 101.543350
[R_rear_hand03]
26 101.539970 5.215704 5.435467 71.484581 -71.816628 21.513813 101.819031
27 101.539970 5.215704 5.435467 71.484581 -71.816628 21.513813 101.819031
[Rope4_Seg01]
26 0.000010 0.000038 -0.000114 47.438217 11.814007 -111.205086 0.000121
27 0.000010 0.000038 -0.000114 47.054623 15.466180 -111.582474 0.000121
[Rope4_Seg02]
26 139.999985 0.000060 0.000119 0.315580 1.088338 4.387822 139.999985
27 139.999985 0.000060 0.000119 0.264007 1.298237 4.368103 139.999985
[Rope4_Seg03]
26 139.999924 0.000000 -0.000238 0.168741 1.592298 6.313562 139.999924
27 139.999924 0.000000 -0.000238 0.087127 1.908888 6.312932 139.999924
[Rope4_Seg04]
26 139.999985 0.000000 0.000119 -1.589416 2.778143 19.712700 139.999985
27 139.999985 0.000000 0.000119 -1.913021 4.049475 20.133320 139.999985
[Rope4_Seg05]
26 139.999802 -0.000060 -0.000119 1.028166 3.337286 -3.333503 139.999802
27 139.999802 -0.000060 -0.000119 1.205273 2.647596 -3.602400 139.999802
[Rope4_Seg06]
26 139.999924 0.000000 0.000060 2.869766 0.913118 -16.132715 139.999924
27 139.999924 0.000000 0.000060 3.432000 -0.463186 -17.601875 139.999924
[Rope4_Seg07]
26 139.999802 0.000000 0.000000 0.615329 0.405306 -4.201027 139.999802
27 139.999802 0.000000 0.000000 0.622908 -0.062185 -4.644025 139.999802
[Rope4_Seg08]
26 139.999924 0.000000 0.000119 -1.219191 0.194688 -2.315299 139.999924
27 139.999924 0.000000 0.000119 -1.248576 -0.060820 -2.554965 139.999924
[Rope4_Seg09]
26 90.185791 0.000060 0.000060 -135.617828 2.228885 0.850567 90.185791
27 90.185791 0.000060 0.000060 -135.617828 2.228885 0.850567 90.185791
[L_rear_hand01]
26 101.696655 -8.392275 -7.654577 -12.874829 -36.868488 107.832764 102.329041
27 101.696655 -8.392275 -7.654577 -12.874829 -36.868488 107.832764 102.329041
[L_rear_hand02]
26 102.726799 -1.568258 5.773216 71.484581 71.816628 158.486160 102.900848
27 102.726799 -1.568258 5.773216 71.484581 71.816628 158.486160 102.900848
[L_rear_hand03]
26 104.552910 9.721220 -10.420293 -177.714203 -24.565960 -106.089035 105.519653
27 104.552910 9.721220 -10.420293 -177.714203 -24.565960 -106.089035 105.519653
